<svg xmlns="http://www.w3.org/2000/svg" xmlns:xlink="http://www.w3.org/1999/xlink" id="Layer_1" x="0" y="0" version="1.1" viewBox="0 0 812.2 812" style="enable-background:new 0 0 812.2 812" xml:space="preserve"><style type="text/css">.st0{fill:#ffb81a}.st1{fill:#189ced}.st2{fill:#1bea7d}</style><g id="XMLID_1_"><path id="XMLID_2_" d="M268.1,330.8c24.1,24.1,63.5,24.1,87.6,0l191.2-191.2c24.1-24.1,24.1-63.5,0-87.6l-2.2-2.2 c-24.1-24.1-63.5-24.1-87.6,0L265.9,241c-24.1,24.1-24.1,63.5,0,87.6L268.1,330.8z" class="st0"/><path id="XMLID_9_" d="M398.6,322.8L324.4,397c-24.1,24.1-24.1,63.5,0,87.6l2.2,2.2c24.1,24.1,63.5,24.1,87.6,0 l74.2-74.2c24.1-24.1,24.1-63.5,0-87.6l-2.2-2.2C462.2,298.7,422.7,298.7,398.6,322.8z" class="st1"/><path id="XMLID_10_" d="M544.8,481.4c-24.1-24.1-63.5-24.1-87.6,0L265.9,672.7c-24.1,24.1-24.1,63.5,0,87.6l2.2,2.2 c24.1,24.1,63.5,24.1,87.6,0l191.2-191.2c24.1-24.1,24.1-63.5,0-87.6L544.8,481.4z" class="st2"/></g></svg>